<?xml version="1.0" encoding="UTF-8"?>
<svg version="1.1" viewBox="0 0 246.83 300" xmlns="http://www.w3.org/2000/svg" xmlns:xlink="http://www.w3.org/1999/xlink">
 <defs>
  <radialGradient id="w" cx="-91.799" cy="200.93" r="61.742" gradientTransform="matrix(.033151 1.3437 -1.1988 .029524 128.39 340.22)" gradientUnits="userSpaceOnUse">
   <stop stop-color="#640000" offset="0"/>
   <stop stop-color="#530000" offset=".5"/>
   <stop offset="1"/>
  </radialGradient>
  <radialGradient id="x" cx="-113.5" cy="217.15" r="57.62" gradientTransform="matrix(.90992 .14686 -.19505 1.2085 28.633 -21.297)" gradientUnits="userSpaceOnUse">
   <stop stop-color="#7d0101" offset="0"/>
   <stop stop-color="#450101" offset="1"/>
  </radialGradient>
  <radialGradient id="y" cx="-55.922" cy="218.5" r="53.294" gradientTransform="matrix(1.4065 -.24312 .21153 1.2237 -86.237 -61.942)" gradientUnits="userSpaceOnUse">
   <stop stop-color="#8e0000" offset="0"/>
   <stop stop-color="#550101" offset="1"/>
  </radialGradient>
  <radialGradient id="z" cx="-116.18" cy="224.29" r="49.45" gradientTransform="matrix(1.1418 -.016058 .021914 1.5568 11.33 -128.56)" gradientUnits="userSpaceOnUse">
   <stop stop-color="#ff6363" offset="0"/>
   <stop stop-color="#ba0000" offset=".39072"/>
   <stop offset="1"/>
  </radialGradient>
  <linearGradient id="o" x1="-93.763" x2="-95.017" y1="274.38" y2="165.85" gradientTransform="translate(-7.772e-7 -3.483e-6)" gradientUnits="userSpaceOnUse" xlink:href="#a"/>
  <linearGradient id="a">
   <stop stop-color="#fff" stop-opacity=".66923" offset="0"/>
   <stop stop-color="#fffbfb" stop-opacity="0" offset="1"/>
  </linearGradient>
  <linearGradient id="p" x1="-80.235" x2="-158.41" y1="171.56" y2="182.28" gradientTransform="translate(-2.6771e-6 5.6118e-6)" gradientUnits="userSpaceOnUse" xlink:href="#a"/>
  <linearGradient id="q" x1="-178.58" x2="-132.15" y1="217.81" y2="238.17" gradientUnits="userSpaceOnUse" xlink:href="#a"/>
  <linearGradient id="r" x1="-158.07" x2="-97.428" y1="247.01" y2="238.44" gradientUnits="userSpaceOnUse" xlink:href="#a"/>
  <linearGradient id="s" x1="-96.702" x2="-129.44" y1="236.5" y2="204.98" gradientUnits="userSpaceOnUse" xlink:href="#a"/>
  <linearGradient id="t" x1="-93.323" x2="-116.33" y1="199.55" y2="219.91" gradientUnits="userSpaceOnUse" xlink:href="#a"/>
  <linearGradient id="u" x1="-135.69" x2="-105.18" y1="208.75" y2="233.17" gradientUnits="userSpaceOnUse" xlink:href="#a"/>
  <linearGradient id="v" x1="-140.06" x2="-116.84" y1="240.86" y2="232.27" gradientUnits="userSpaceOnUse" xlink:href="#a"/>
  <filter id="b" color-interpolation-filters="sRGB">
   <feGaussianBlur in="SourceGraphic" result="result0" stdDeviation="6"/>
   <feDiffuseLighting lighting-color="#ffffff" result="result5" surfaceScale="4">
    <feDistantLight azimuth="235" elevation="45"/>
   </feDiffuseLighting>
   <feComposite in="result5" in2="SourceGraphic" k1="1.4" operator="arithmetic" result="fbSourceGraphic"/>
   <feGaussianBlur in="fbSourceGraphic" result="result0" stdDeviation="6"/>
   <feSpecularLighting lighting-color="#ffffff" in="result0" result="result1" specularExponent="25" surfaceScale="4">
    <feDistantLight azimuth="235" elevation="45"/>
   </feSpecularLighting>
   <feComposite in="fbSourceGraphic" in2="result1" k2="1" k3="1" operator="arithmetic" result="result4"/>
   <feComposite in="result4" in2="SourceGraphic" operator="in" result="result2"/>
  </filter>
 </defs>
 <g transform="translate(-282.09 -391.1)">
  <g transform="matrix(2.66 0 0 2.66 -1985 727.09)">
   <g transform="matrix(-.75146 .017683 -.017683 -.75146 814.91 98.454)">
    <path d="m-178.44 221.33c23.65-20.428 45.595-47.087 61.599-74.898 19.332 31.564 40.55 57.743 61.885 74.921-24.82 21.79-46.683 48.79-61.885 74.999-17.301-28.224-39.78-55.938-61.6-75.022z" fill="url(#w)"/>
    <path d="m-173.74 222.04c22.651 21.349 40.978 44.846 56.895 69.95 15.821-26.231 35.638-50.08 58.344-70.581-2.9436-2.4816-7.3763-6.2183-10.172-8.8533-21.279-2.484-37.672 9.7786-53.12 14.371-14.685 4.3651-31.297 7.302-51.947-4.8857zm101.71-13.099c-17.269-17.311-31.816-37.341-44.813-58.047-16.596 25.581-36.632 51.035-56.088 69.176 22.71 11.678 34.727 8.8074 51.926 3.8095 15.299-4.446 19.234-11.845 48.975-14.938z" fill="url(#x)"/>
    <path d="m-164.05 228.55c17.915 17.771 33.494 37.896 47.209 59.065 14.971-24.533 34.135-46.642 54.684-66.318-2.2423-1.9482-4.4418-3.9436-6.6002-5.9823-17.987-4.5019-39.548 9.7177-51.072 13.238-14.204 3.7756-22.393 7.5694-44.22 0zm86.689-21.806c-14.908-15.634-27.896-33.29-39.48-51.521-15.229 23.605-34.395 47.118-51.905 63.595 18.411 10.699 31.032 6.8504 45.223 3.24 16.11-4.0987 22.994-12.248 46.162-15.314z" fill="url(#y)"/>
    <path d="m-156.73 232.73c14.829 15.534 28.065 32.727 39.891 50.673 14.288-22.788 32.102-43.25 51.221-62.088-1.5211-1.3563-3.0224-2.7338-4.5045-4.1314-13.114-4.2334-34.208 7.431-45.016 11.655-11.05 4.3188-26.768 8.4579-41.592 3.8915zm74.935-27.612c-12.795-13.959-24.809-29.723-35.044-45.572-15.078 21.847-31.333 42.724-47.678 58.428 9.6734 6.4984 24.608 6.3322 34.396 3.7892 14.44-3.7516 38.549-16.04 48.326-16.645z" fill="url(#z)"/>
    <path d="m-116.84 199.49v-53.216c17.067 27.611 35.537 54.193 61.79 75.067h-43.638z" fill="url(#o)" opacity=".7037"/>
    <path d="m-116.84 199.49-17.943 21.851h-43.561c23.962-20.562 44.357-45.664 61.504-74.899z" fill="url(#p)" opacity=".79424"/>
    <path d="m-178.35 221.34h43.561l17.943 22.014v52.924c-15.538-24.116-31.976-48.389-61.504-74.938z" fill="url(#q)" opacity=".80247"/>
    <path d="m-116.84 296.27c13.142-21.459 26.827-43.174 61.79-74.938h-43.638l-18.089 21.938z" fill="url(#r)"/>
    <path d="m-134.79 221.34h17.948l-5e-3 -21.851z" fill="url(#s)"/>
    <path d="m-116.84 221.34-5e-3 -21.851 18.152 21.851z" fill="url(#t)" opacity=".90535"/>
    <path d="m-116.84 221.34-5e-3 21.862 18.152-21.862z" fill="url(#u)" opacity=".82716"/>
    <path d="m-134.79 221.34 17.943 21.862 5e-3 -21.862z" fill="url(#v)"/>
   </g>
   <g transform="matrix(-.29144 0 0 .29144 -347.83 88.635)" fill="#704b00">
    <g transform="matrix(-.25892 0 0 -.25892 -4407.7 -630.86)" filter="url(#b)">
     <path d="m-192.27-505.11c-18.733-5.56-33.519-13.306-45.506-29-13.801-18.569-12.589-42.595 3.1847-58.092 9.161-9.0003 25.309-12.11 35.918-8.0576 24.184 9.2383 28.924 36.836 13.774 51.786-10.736 10.594-24.721 8.1006-32.981 2.1269-6.4836-4.6887-12.118-12.815-10.056-21.966 2.1486-9.536 10.446-18.514 20.938-14.581 3.296 1.3772 5.877 5.6926 5.152 9.1491-1.1388 5.4288-8.826 8.3522-10.902 4.0204-1.3401-2.7966-3.8367-2.967-4.6694-2.6474-8.1564 13.387 6.7464 23.207 13.942 9.3784 4.2287-7.1841 9.1214-8.2682 15.363-6.3528 2.812 0.78423 3.3912 0.53414 3.3876-0.78609-0.0169-6.1454-2.6713-12.385-6.9827-16.413-13.801-12.246-36.169-5.8868-43.057 7.7092-4.3853 9.82-4.5264 19.793-1.5587 29.173 4.9376 15.327 18.26 27.104 39.773 35.161 8.7321 3.2702 10.283 3.9796 10.62 4.8561 0.40873 1.0651 0.35651 3.0896-0.0982 3.8065-0.39305 0.61972-4.6367 1.1156-6.2397 0.72911z"/>
     <path d="m-171.28-342.46c-15.925-1.5379-33.077-7.8605-47.688-17.579-3.611-2.4018-6.8249-4.367-7.142-4.367-0.40623 0-0.64221 1.25-0.7988 4.2311-0.23307 4.4373-0.99098 6.6109-3.4466 9.8843-2.5038 3.3376-8.006 4.2596-12.388 2.0757-2.6229-1.307-3.7407-2.8969-3.7295-5.3047 0.01-2.158 0.31988-2.4543 3.9882-3.8141 1.8103-0.67102 3.8133-1.7036 4.451-2.2947 1.0286-0.9533 1.1596-1.4367 1.1596-4.2807 0-4.4621-1.2867-9.5325-5.0862-20.044-6.4243-17.772-7.8351-24.714-7.8804-38.774-0.0275-8.545 0.0538-9.4728 1.2319-14.067 1.8914-7.3754 6.5382-20.763 8.3602-24.086 1.9254-3.5114 1.8775-3.8404-1.2553-8.6169-4.2908-6.542-5.9464-11.407-5.93-17.425 0.0206-7.581 2.7551-13.351 8.3031-17.519 3.1389-2.3585 6.2931-3.0337 9.6344-2.0624 3.2067 0.93221 5.5293 2.72 7.004 5.3912 1.8836 3.4118 1.3164 6.6449-1.7317 9.8709-2.5686 2.7186-4.3714 2.9646-9.4154 1.2848-4.6424-1.5461-5.0643-1.3217-5.0643 2.6936 0 6.1226 3.748 14.896 6.3693 14.91 0.39641 2e-3 3.6025-1.4453 7.1246-3.2164 10.505-5.2824 17.442-6.3198 23.252-3.4774 4.9551 2.4243 8.525 7.3412 8.5345 11.755 0.0189 8.8477-9.172 15.3-20.548 14.425-2.8954-0.22256-5.6145-0.88318-10.69-2.5971-7.6087-2.5695-7.6012-2.5701-9.0133 0.72421-2.8467 6.6411-2.9849 15.932-0.31363 21.095 1.7378 3.3588 6.0075 5.7272 10.837 6.0112 2.9726 0.1748 3.7912 0.0417 6.1314-0.99667 3.5122-1.5584 5.9391-1.6698 7.2738-0.33361 0.82536 0.82629 0.9989 1.5098 0.97743 3.8497-0.0642 6.9977-7.0617 14.367-14.469 15.238-3.3495 0.39366-7.0143-0.43842-12.447-2.826l-4.5283-1.9901c0.0523 11.474 3.1536 23.544 8.6144 30.499 8.3555 10.642 24.739 19.94 36.602 14.578 2.9159-1.3325 5.371-3.4005 6.4244-5.4115 0.35848-0.68433 0.77822-2.8456 0.93276-4.8029 0.49479-6.2668 2.1404-8.0522 6.4653-7.0147 6.1559 1.4768 11.673 9.394 10.928 15.683-0.46507 3.9268-3.1264 8.6336-7.4781 13.225-4.9022 5.1728-4.8571 5.2596 3.091 5.9415 15.757 0.86256 31.469 1.2166 45.732-5.7992 6.3543-3.1775 10.758-8.0875 11.923-13.295 1.1237-5.0212-1.5878-9.6094-7.4182-12.553-3.3146-1.6732-4.0686-2.4534-4.0686-4.2094 0-3.558 4.9715-9.3856 9.9348-11.646 3.4352-1.5642 8.4272-1.6762 11.586-0.25994 2.8598 1.2822 6.1469 4.212 9.0668 8.0814 1.3509 1.7902 2.617 3.3168 2.8135 3.3923 0.50907 0.1957 2.6062-8.9419 3.2335-14.089 1.0762-8.8305-0.18629-21.122-2.9134-28.364-6.2681-16.646-16.864-27.395-32.349-32.814-32.862-9.9192-66.301 14.48-60.615 43.11 5.385 20.665 33.165 29.849 45.978 20.948 0-0.20376-1.1664-1.7069-2.5921-3.3403-3.5633-4.0826-4.9486-7.1766-4.914-10.975 0.0198-2.1654 0.31237-3.5257 1.0769-5.0066 1.094-2.1189 5.6716-6.586 8.7511-9.2495 1.2302-1.064 0.88405-2.6487 0.0711-4.6346-5.0313-9.4923-18.299-9.2085-24.631-5.551-2.5976 1.606-4.9273 3.8998-5.0441 6.6902-0.14768 3.5288 3.0317 4.079 5.097 3.9154 6.4791-0.51303 10.278 4.1533 7.7352 9.5129-1.8295 3.8555-6.4513 5.9043-10.9 3.3886-22.499-12.724-3.4885-40.74 19.476-37.963 14.471 1.7495 24.05 10.243 28.034 23.991 2.8674 11.571-2.0387 23.05-9.077 29.798-11.981 11.488-30.865 16.228-48.023 5.3875-11.419-8.1323-19.402-20.834-19.485-34.412-0.0754-12.302 7.5136-27.105 17.964-35.508 4.4778-3.6006 12.128-7.5081 17.896-9.1406 6.0934-1.7246 14.922-2.6815 21.767-2.3592 8.8923 0.41871 13.155 1.6749 25.951 7.6481 2.323 1.0844 4.3574 1.8379 4.5207 1.6746 0.85245-0.85244-8.2101-9.1789-14.839-13.634-7.7185-5.1871-16.217-8.8659-24.82-10.744-4.1506-0.90591-12.556-1.0234-15.971-0.22322-5.9231 1.3877-7.9166 3.8292-8.4277 10.321-0.2472 3.1404-0.45208 3.8053-1.4447 4.6886-1.6373 1.4568-4.3092 1.3571-7.7383-0.289-3.6188-1.7372-6.1406-3.9914-7.7282-6.9084-2.4746-4.5467-1.1451-9.3019 4.8356-17.296 1.9447-2.5994 3.6598-5.1168 3.8114-5.5942s-0.26869-2.5739-0.9338-4.6589c-2.3357-7.322-2.0025-12.305 1.2042-18.01 1.4165-2.52 5.3565-6.5096 7.5478-7.6427 5.2164-2.6975 15.568-1.4045 18.49 2.3094 1.6632 2.1144 1.3834 2.5443-5.234 8.0418-6.0353 5.0139-4.8148 11.689 3.0955 16.93 1.2963 0.85891 6.7825 3.8796 12.192 6.7127 25.045 13.118 36.972 22.065 46.633 34.982 3.378 4.5163 5.6544 8.5477 9.2916 16.455 3.1958 6.9474 3.7645 7.9454 4.2506 7.4594 0.42851-0.42851-1.0564-8.3798-2.5627-13.722-4.5208-16.035-13.128-29.918-34.679-55.933-13.024-15.722-13.706-17.542-13.993-27.228-0.19257-6.5082 3.1078-11.781 9.1431-14.433 8.9146-1.8985 17.834-0.16707 21.013 8.4242 1.2531 3.3869-1.2301 8.2817-3.8002 9.7944-3.9444 2.3215-8.2355-0.0244-10.398-5.6846-1.7339-4.5375-3.3689-5.0681-6.085-1.9746-4.632 5.2756-0.18851 16.247 11.114 27.443 4.6112 4.5674 10.975 9.8345 11.881 9.8345 0.32267 0 1.9512-1.338 3.619-2.9732 2.9189-2.862 4.2985-3.5059 5.6205-2.6232 0.91322 0.60978 1.4788 2.1528 3.5723 9.7468 1.1393 4.1326 3.6349 12.557 5.5457 18.721 6.2805 19.956 11.208 41.175 7.9903 62.202-3.1557 17.552-10.272 31.463-16.468 46.146 0 0.22985 1.5952-0.0766 3.545-0.681 13.284-4.118 21.822-4.2929 29.776-0.61019 14.108 7.6163 13.889 25.838 3.7991 31.434-4.3593 2.2549-9.7657 2.2661-14.02 0.0405-10.797-4.8175-7.6287-21.383 1.0703-21.882 6.707-0.16467 7.9266 7.2174 6.7059 11.885-0.84667 3.1544-0.84561 3.2019 0.0712 3.2019 4.5318-1.8014 8.0694-7.1019 4.3508-12.2-12.761-13.943-35.533 0.1855-42.159 3.278-22.655 10.58-30.269 13.436-42.54 15.954-9.8729 2.0261-21.672 2.8673-29.549 2.1066zm-36.418-120.56c2.1251-0.44015 2.6602-4.9892 0.8051-6.8443-0.97636-0.97636-1.5367-1.1228-4.2973-1.1228-7.5978 0-15.242 4.4763-11.19 6.5528 3.2787 1.6802 10.186 2.3455 14.682 1.4143z"/>
    </g>
    <g transform="matrix(-.25892 0 0 .25892 -4407.8 -458.45)" filter="url(#b)">
     <path d="m-192.27-505.11c-18.733-5.56-33.519-13.306-45.506-29-13.801-18.569-12.589-42.595 3.1847-58.092 9.161-9.0003 25.309-12.11 35.918-8.0576 24.184 9.2383 28.924 36.836 13.774 51.786-10.736 10.594-24.721 8.1006-32.981 2.1269-6.4836-4.6887-12.118-12.815-10.056-21.966 2.1486-9.536 10.446-18.514 20.938-14.581 3.296 1.3772 5.877 5.6926 5.152 9.1491-1.1388 5.4288-8.826 8.3522-10.902 4.0204-1.3401-2.7966-3.8367-2.967-4.6694-2.6474-8.1564 13.387 6.7464 23.207 13.942 9.3784 4.2287-7.1841 9.1214-8.2682 15.363-6.3528 2.812 0.78423 3.3912 0.53414 3.3876-0.78609-0.0169-6.1454-2.6713-12.385-6.9827-16.413-13.801-12.246-36.169-5.8868-43.057 7.7092-4.3853 9.82-4.5264 19.793-1.5587 29.173 4.9376 15.327 18.26 27.104 39.773 35.161 8.7321 3.2702 10.283 3.9796 10.62 4.8561 0.40873 1.0651 0.35651 3.0896-0.0982 3.8065-0.39305 0.61972-4.6367 1.1156-6.2397 0.72911z"/>
     <path d="m-171.28-342.46c-15.925-1.5379-33.077-7.8605-47.688-17.579-3.611-2.4018-6.8249-4.367-7.142-4.367-0.40623 0-0.64221 1.25-0.7988 4.2311-0.23307 4.4373-0.99098 6.6109-3.4466 9.8843-2.5038 3.3376-8.006 4.2596-12.388 2.0757-2.6229-1.307-3.7407-2.8969-3.7295-5.3047 0.01-2.158 0.31988-2.4543 3.9882-3.8141 1.8103-0.67102 3.8133-1.7036 4.451-2.2947 1.0286-0.9533 1.1596-1.4367 1.1596-4.2807 0-4.4621-1.2867-9.5325-5.0862-20.044-6.4243-17.772-7.8351-24.714-7.8804-38.774-0.0275-8.545 0.0538-9.4728 1.2319-14.067 1.8914-7.3754 6.5382-20.763 8.3602-24.086 1.9254-3.5114 1.8775-3.8404-1.2553-8.6169-4.2908-6.542-5.9464-11.407-5.93-17.425 0.0206-7.581 2.7551-13.351 8.3031-17.519 3.1389-2.3585 6.2931-3.0337 9.6344-2.0624 3.2067 0.93221 5.5293 2.72 7.004 5.3912 1.8836 3.4118 1.3164 6.6449-1.7317 9.8709-2.5686 2.7186-4.3714 2.9646-9.4154 1.2848-4.6424-1.5461-5.0643-1.3217-5.0643 2.6936 0 6.1226 3.748 14.896 6.3693 14.91 0.39641 2e-3 3.6025-1.4453 7.1246-3.2164 10.505-5.2824 17.442-6.3198 23.252-3.4774 4.9551 2.4243 8.525 7.3412 8.5345 11.755 0.0189 8.8477-9.172 15.3-20.548 14.425-2.8954-0.22256-5.6145-0.88318-10.69-2.5971-7.6087-2.5695-7.6012-2.5701-9.0133 0.72421-2.8467 6.6411-2.9849 15.932-0.31363 21.095 1.7378 3.3588 6.0075 5.7272 10.837 6.0112 2.9726 0.1748 3.7912 0.0417 6.1314-0.99667 3.5122-1.5584 5.9391-1.6698 7.2738-0.33361 0.82536 0.82629 0.9989 1.5098 0.97743 3.8497-0.0642 6.9977-7.0617 14.367-14.469 15.238-3.3495 0.39366-7.0143-0.43842-12.447-2.826l-4.5283-1.9901c0.0523 11.474 3.1536 23.544 8.6144 30.499 8.3555 10.642 24.739 19.94 36.602 14.578 2.9159-1.3325 5.371-3.4005 6.4244-5.4115 0.35848-0.68433 0.77822-2.8456 0.93276-4.8029 0.49479-6.2668 2.1404-8.0522 6.4653-7.0147 6.1559 1.4768 11.673 9.394 10.928 15.683-0.46507 3.9268-3.1264 8.6336-7.4781 13.225-4.9022 5.1728-4.8571 5.2596 3.091 5.9415 15.757 0.86256 31.469 1.2166 45.732-5.7992 6.3543-3.1775 10.758-8.0875 11.923-13.295 1.1237-5.0212-1.5878-9.6094-7.4182-12.553-3.3146-1.6732-4.0686-2.4534-4.0686-4.2094 0-3.558 4.9715-9.3856 9.9348-11.646 3.4352-1.5642 8.4272-1.6762 11.586-0.25994 2.8598 1.2822 6.1469 4.212 9.0668 8.0814 1.3509 1.7902 2.617 3.3168 2.8135 3.3923 0.50907 0.1957 2.6062-8.9419 3.2335-14.089 1.0762-8.8305-0.18629-21.122-2.9134-28.364-6.2681-16.646-16.864-27.395-32.349-32.814-32.862-9.9192-66.301 14.48-60.615 43.11 5.385 20.665 33.165 29.849 45.978 20.948 0-0.20376-1.1664-1.7069-2.5921-3.3403-3.5633-4.0826-4.9486-7.1766-4.914-10.975 0.0198-2.1654 0.31237-3.5257 1.0769-5.0066 1.094-2.1189 5.6716-6.586 8.7511-9.2495 1.2302-1.064 0.88405-2.6487 0.0711-4.6346-5.0313-9.4923-18.299-9.2085-24.631-5.551-2.5976 1.606-4.9273 3.8998-5.0441 6.6902-0.14768 3.5288 3.0317 4.079 5.097 3.9154 6.4791-0.51303 10.278 4.1533 7.7352 9.5129-1.8295 3.8555-6.4513 5.9043-10.9 3.3886-22.499-12.724-3.4885-40.74 19.476-37.963 14.471 1.7495 24.05 10.243 28.034 23.991 2.8674 11.571-2.0387 23.05-9.077 29.798-11.981 11.488-30.865 16.228-48.023 5.3875-11.419-8.1323-19.402-20.834-19.485-34.412-0.0754-12.302 7.5136-27.105 17.964-35.508 4.4778-3.6006 12.128-7.5081 17.896-9.1406 6.0934-1.7246 14.922-2.6815 21.767-2.3592 8.8923 0.41871 13.155 1.6749 25.951 7.6481 2.323 1.0844 4.3574 1.8379 4.5207 1.6746 0.85245-0.85244-8.2101-9.1789-14.839-13.634-7.7185-5.1871-16.217-8.8659-24.82-10.744-4.1506-0.90591-12.556-1.0234-15.971-0.22322-5.9231 1.3877-7.9166 3.8292-8.4277 10.321-0.2472 3.1404-0.45208 3.8053-1.4447 4.6886-1.6373 1.4568-4.3092 1.3571-7.7383-0.289-3.6188-1.7372-6.1406-3.9914-7.7282-6.9084-2.4746-4.5467-1.1451-9.3019 4.8356-17.296 1.9447-2.5994 3.6598-5.1168 3.8114-5.5942s-0.26869-2.5739-0.9338-4.6589c-2.3357-7.322-2.0025-12.305 1.2042-18.01 1.4165-2.52 5.3565-6.5096 7.5478-7.6427 5.2164-2.6975 15.568-1.4045 18.49 2.3094 1.6632 2.1144 1.3834 2.5443-5.234 8.0418-6.0353 5.0139-4.8148 11.689 3.0955 16.93 1.2963 0.85891 6.7825 3.8796 12.192 6.7127 25.045 13.118 36.972 22.065 46.633 34.982 3.378 4.5163 5.6544 8.5477 9.2916 16.455 3.1958 6.9474 3.7645 7.9454 4.2506 7.4594 0.42851-0.42851-1.0564-8.3798-2.5627-13.722-4.5208-16.035-13.128-29.918-34.679-55.933-13.024-15.722-13.706-17.542-13.993-27.228-0.19257-6.5082 3.1078-11.781 9.1431-14.433 8.9146-1.8985 17.834-0.16707 21.013 8.4242 1.2531 3.3869-1.2301 8.2817-3.8002 9.7944-3.9444 2.3215-8.2355-0.0244-10.398-5.6846-1.7339-4.5375-3.3689-5.0681-6.085-1.9746-4.632 5.2756-0.18851 16.247 11.114 27.443 4.6112 4.5674 10.975 9.8345 11.881 9.8345 0.32267 0 1.9512-1.338 3.619-2.9732 2.9189-2.862 4.2985-3.5059 5.6205-2.6232 0.91322 0.60978 1.4788 2.1528 3.5723 9.7468 1.1393 4.1326 3.6349 12.557 5.5457 18.721 6.2805 19.956 11.208 41.175 7.9903 62.202-3.1557 17.552-10.272 31.463-16.468 46.146 0 0.22985 1.5952-0.0766 3.545-0.681 13.284-4.118 21.822-4.2929 29.776-0.61019 14.108 7.6163 13.889 25.838 3.7991 31.434-4.3593 2.2549-9.7657 2.2661-14.02 0.0405-10.797-4.8175-7.6287-21.383 1.0703-21.882 6.707-0.16467 7.9266 7.2174 6.7059 11.885-0.84667 3.1544-0.84561 3.2019 0.0712 3.2019 4.5318-1.8014 8.0694-7.1019 4.3508-12.2-12.761-13.943-35.533 0.1855-42.159 3.278-22.655 10.58-30.269 13.436-42.54 15.954-9.8729 2.0261-21.672 2.8673-29.549 2.1066zm-36.418-120.56c2.1251-0.44015 2.6602-4.9892 0.8051-6.8443-0.97636-0.97636-1.5367-1.1228-4.2973-1.1228-7.5978 0-15.242 4.4763-11.19 6.5528 3.2787 1.6802 10.186 2.3455 14.682 1.4143z"/>
    </g>
   </g>
  </g>
 </g>
</svg>
